<?xml version="1.0" encoding="iso-8859-1"?>
<!-- Generator: Adobe Illustrator 19.0.0, SVG Export Plug-In . SVG Version: 6.00 Build 0)  -->
<svg version="1.1" id="Layer_1" xmlns="http://www.w3.org/2000/svg" xmlns:xlink="http://www.w3.org/1999/xlink" x="0px" y="0px"
	 viewBox="0 0 512 512" style="enable-background:new 0 0 512 512;" xml:space="preserve">
<path style="fill:#F072AE;" d="M360.773,20.803c-38.115,0-75.773,14.352-104.768,39.229c-0.002-0.002-0.003-0.003-0.005-0.003
	C227,35.153,189.341,20.805,151.229,20.805C66.429,20.803,0,87.231,0,172.034c0,102.508,71.372,165.166,179.406,260.008
	c9.232,8.105,18.76,16.468,28.564,25.139c0.067,0.061,0.135,0.119,0.203,0.178l32.615,28.176c4.37,3.774,9.789,5.661,15.211,5.663
	c0.003,0,0.003,0,0.006,0c5.424,0,10.847-1.889,15.219-5.663l32.611-28.176c0.068-0.059,0.135-0.118,0.203-0.177
	c64.565-57.102,112.977-100.816,148.002-143.454C492.946,263.932,512,218.907,512,172.035C512,87.231,445.573,20.803,360.773,20.803
	z"/>
<path style="fill:#EA348B;" d="M151.229,20.803C66.429,20.803,0,87.231,0,172.034c0,102.508,71.372,165.166,179.406,260.008
	c9.232,8.105,18.76,16.468,28.564,25.139c0.067,0.061,0.135,0.119,0.203,0.178l32.617,28.176c4.37,3.774,9.789,5.661,15.211,5.663
	V60.028C227,35.152,189.341,20.803,151.229,20.803z"/>
<g>
</g>
<g>
</g>
<g>
</g>
<g>
</g>
<g>
</g>
<g>
</g>
<g>
</g>
<g>
</g>
<g>
</g>
<g>
</g>
<g>
</g>
<g>
</g>
<g>
</g>
<g>
</g>
<g>
</g>
</svg>
