<?xml version="1.0" encoding="iso-8859-1"?>
<!-- Generator: Adobe Illustrator 19.0.0, SVG Export Plug-In . SVG Version: 6.00 Build 0)  -->
<svg version="1.1" id="Layer_1" xmlns="http://www.w3.org/2000/svg" xmlns:xlink="http://www.w3.org/1999/xlink" x="0px" y="0px"
	 viewBox="0 0 486.479 486.479" style="enable-background:new 0 0 486.479 486.479;" xml:space="preserve">
<path d="M345.319,0c-38.782,0-75.729,16.175-102.079,44.013C216.89,16.175,179.942,0,141.16,0C63.732,0,0.74,62.993,0.74,140.421
	c0,32.323,11.254,63.88,31.698,88.869L243.24,486.479l210.811-257.2c20.435-24.978,31.689-56.535,31.689-88.858
	C485.74,62.993,422.747,0,345.319,0z M430.84,210.272l-187.6,228.882L55.648,210.283c-16.063-19.634-24.909-44.444-24.909-69.862
	C30.74,79.535,80.274,30,141.16,30c35.558,0,69.158,17.295,89.879,46.265l12.2,17.057l12.2-17.057
	C276.161,47.295,309.76,30,345.319,30c60.886,0,110.421,49.535,110.421,110.421C455.74,165.838,446.893,190.649,430.84,210.272z"/>
<g>
</g>
<g>
</g>
<g>
</g>
<g>
</g>
<g>
</g>
<g>
</g>
<g>
</g>
<g>
</g>
<g>
</g>
<g>
</g>
<g>
</g>
<g>
</g>
<g>
</g>
<g>
</g>
<g>
</g>
</svg>
